<svg width="32" height="32" viewBox="0 0 32 32" fill="none" xmlns="http://www.w3.org/2000/svg">
<path d="M11.6903 2.9219C13.0643 2.7339 14.219 3.57457 14.7657 4.66724L16.1103 7.3559C16.8563 8.8479 16.4277 10.5986 15.297 11.6999C14.629 12.3499 13.9577 13.0926 13.5683 13.7479C13.5426 13.7946 13.5345 13.8491 13.5457 13.9012C13.9057 15.8519 15.2277 17.7792 16.407 19.1612C16.4663 19.2271 16.5437 19.2741 16.6296 19.2963C16.7154 19.3184 16.8059 19.3148 16.8897 19.2859L19.5397 18.4579C20.2535 18.2348 21.0201 18.2462 21.727 18.4905C22.4338 18.7347 23.0439 19.199 23.4677 19.8152L25.3857 22.6046C25.9057 23.3619 26.169 24.3886 25.7703 25.3759C25.4144 26.2579 24.7257 27.5299 23.473 28.3759C22.173 29.2532 20.3924 29.5866 18.0624 28.7879C15.459 27.8946 12.9997 25.6546 10.9603 22.7899C8.90902 19.9072 7.22035 16.3066 6.19635 12.5519C5.22902 9.00657 5.81301 6.6199 7.18768 5.08324C8.51368 3.60057 10.4137 3.09724 11.6903 2.9219ZM13.275 5.41257C12.9703 4.8039 12.427 4.50324 11.917 4.57324C10.783 4.72924 9.36302 5.15124 8.43035 6.19457C7.54635 7.18324 6.93435 8.92457 7.80368 12.1132C8.78035 15.6919 10.3883 19.1119 12.3183 21.8232C14.2603 24.5519 16.467 26.4786 18.603 27.2112C20.5064 27.8639 21.7297 27.5412 22.5404 26.9946C23.3977 26.4152 23.925 25.4946 24.225 24.7519C24.3624 24.4119 24.303 23.9719 24.0124 23.5492L22.0943 20.7599C21.8724 20.4371 21.5529 20.1939 21.1827 20.0658C20.8124 19.9378 20.4109 19.9318 20.037 20.0486L17.387 20.8766C16.595 21.1239 15.703 20.9032 15.1397 20.2432C13.9123 18.8052 12.3483 16.5999 11.9063 14.2032C11.8219 13.7541 11.9034 13.2895 12.1357 12.8959C12.641 12.0466 13.441 11.1806 14.1337 10.5059C14.8103 9.84724 15.0023 8.86724 14.6197 8.10124L13.275 5.41324V5.41257Z" fill="#D47945"/>
</svg>
