<svg width="48" height="48" viewBox="0 0 48 48" fill="none" xmlns="http://www.w3.org/2000/svg">
<path d="M24 0C10.7464 0 0 10.7464 0 24C0 37.2536 10.7464 48 24 48C37.2536 48 48 37.2536 48 24C48 10.7464 37.2536 0 24 0ZM24 43.9286C12.9964 43.9286 4.07143 35.0036 4.07143 24C4.07143 12.9964 12.9964 4.07143 24 4.07143C35.0036 4.07143 43.9286 12.9964 43.9286 24C43.9286 35.0036 35.0036 43.9286 24 43.9286Z" fill="#D47945"/>
<path d="M33.3589 30.7822L25.7196 25.259V12.0001C25.7196 11.7644 25.5267 11.5715 25.291 11.5715H22.7142C22.4785 11.5715 22.2856 11.7644 22.2856 12.0001V26.7537C22.2856 26.893 22.3499 27.0215 22.4624 27.1019L31.3231 33.5626C31.516 33.7019 31.7839 33.659 31.9231 33.4715L33.4553 31.3822C33.5946 31.184 33.5517 30.9162 33.3589 30.7822Z" fill="#D47945"/>
</svg>
