<svg width="48" height="48" viewBox="0 0 48 48" fill="none" xmlns="http://www.w3.org/2000/svg">
<path d="M7.09901 1.13736e-07C5.95729 -0.000256425 4.85816 0.433472 4.02428 1.21332C3.1904 1.99317 2.68413 3.06082 2.60801 4.2L0.0100115 43.2C-0.0310587 43.8147 0.05452 44.4313 0.261447 45.0115C0.468374 45.5918 0.792241 46.1234 1.21299 46.5734C1.63373 47.0233 2.14239 47.3822 2.70746 47.6276C3.27252 47.873 3.88196 47.9997 4.49801 48H13.087C13.7031 47.9997 14.3125 47.873 14.8776 47.6276C15.4426 47.3822 15.9513 47.0233 16.372 46.5734C16.7928 46.1234 17.1166 45.5918 17.3236 45.0115C17.5305 44.4313 17.6161 43.8147 17.575 43.2L14.977 4.2C14.9009 3.06082 14.3946 1.99317 13.5607 1.21332C12.7269 0.433472 11.6277 -0.000256425 10.486 1.13736e-07H7.09901ZM5.60201 4.401C5.62717 4.02058 5.79625 3.66401 6.07487 3.40378C6.3535 3.14354 6.72076 2.99917 7.10201 3H10.486C10.8667 2.99993 11.2333 3.14465 11.5112 3.4048C11.7892 3.66496 11.9579 4.0211 11.983 4.401L14.584 43.401C14.5976 43.6061 14.5688 43.8119 14.4995 44.0055C14.4303 44.199 14.3219 44.3763 14.1813 44.5263C14.0406 44.6762 13.8706 44.7956 13.6819 44.8771C13.4931 44.9586 13.2896 45.0005 13.084 45H4.50101C4.29592 44.9996 4.09308 44.9572 3.90503 44.8753C3.71699 44.7935 3.54772 44.6739 3.4077 44.5241C3.26769 44.3742 3.15989 44.1972 3.09097 44.0041C3.02205 43.8109 2.99347 43.6056 3.00701 43.401L5.60501 4.401H5.60201ZM43.294 48H19.084C19.7514 47.1127 20.2125 46.0879 20.434 45H23.794V33C23.794 32.2043 24.1101 31.4413 24.6727 30.8787C25.2353 30.3161 25.9984 30 26.794 30H38.794C39.5897 30 40.3527 30.3161 40.9153 30.8787C41.4779 31.4413 41.794 32.2043 41.794 33V45H43.294C43.6918 45 44.0734 44.842 44.3547 44.5607C44.636 44.2794 44.794 43.8978 44.794 43.5V13.869L32.296 25.116C32.0805 25.3105 31.8131 25.4383 31.5264 25.4839C31.2396 25.5294 30.9458 25.4908 30.6806 25.3726C30.4154 25.2545 30.1901 25.0619 30.0322 24.8182C29.8743 24.5746 29.7905 24.2903 29.791 24V13.869L19.261 23.349L19.006 19.539L30.289 9.384C30.5046 9.18947 30.7719 9.06167 31.0587 9.01612C31.3454 8.97056 31.6392 9.00921 31.9044 9.12736C32.1697 9.24552 32.3949 9.43811 32.5528 9.68176C32.7107 9.92541 32.7945 10.2097 32.794 10.5V20.631L45.289 9.384C45.5046 9.18947 45.7719 9.06167 46.0587 9.01612C46.3454 8.97056 46.6392 9.00921 46.9044 9.12736C47.1697 9.24552 47.3949 9.43811 47.5528 9.68176C47.7107 9.92541 47.7945 10.2097 47.794 10.5V43.5C47.794 44.6935 47.3199 45.8381 46.476 46.682C45.6321 47.5259 44.4875 48 43.294 48ZM26.794 45H38.794V33H26.794V45Z" fill="#D47945"/>
</svg>
