<svg width="25" height="24" viewBox="0 0 25 24" fill="none" xmlns="http://www.w3.org/2000/svg">
<path d="M12.2924 0.282425C12.4718 0.467065 12.5723 0.714929 12.5723 0.973033C12.5723 1.23114 12.4718 1.479 12.2924 1.66364L2.26943 12L12.2924 22.3343C12.4718 22.5189 12.5723 22.7668 12.5723 23.0249C12.5723 23.283 12.4718 23.5309 12.2924 23.7155C12.2052 23.8055 12.101 23.8771 11.9858 23.926C11.8706 23.9748 11.7469 24 11.6219 24C11.4969 24 11.3732 23.9748 11.258 23.926C11.1428 23.8771 11.0386 23.8055 10.9514 23.7155L0.292809 12.7216C0.105609 12.5286 0.00083828 12.2696 0.00083828 12C0.00083828 11.7304 0.105609 11.4714 0.292809 11.2784L10.9514 0.284493C11.0386 0.194459 11.1428 0.122899 11.258 0.0740364C11.3732 0.0251741 11.4969 0 11.6219 0C11.7469 0 11.8706 0.0251741 11.9858 0.0740364C12.101 0.122899 12.2052 0.194459 12.2924 0.284493V0.282425Z" fill="#D47945"/>
<path d="M24.3881 0.282425C24.5675 0.467065 24.668 0.714929 24.668 0.973033C24.668 1.23114 24.5675 1.479 24.3881 1.66364L14.3651 12L24.3881 22.3343C24.5675 22.5189 24.668 22.7668 24.668 23.0249C24.668 23.283 24.5675 23.5309 24.3881 23.7155C24.3009 23.8055 24.1967 23.8771 24.0815 23.926C23.9663 23.9748 23.8426 24 23.7176 24C23.5926 24 23.4689 23.9748 23.3537 23.926C23.2385 23.8771 23.1343 23.8055 23.0471 23.7155L12.3885 12.7216C12.2013 12.5286 12.0965 12.2696 12.0965 12C12.0965 11.7304 12.2013 11.4714 12.3885 11.2784L23.0471 0.284493C23.1343 0.194459 23.2385 0.122899 23.3537 0.0740364C23.4689 0.0251741 23.5926 0 23.7176 0C23.8426 0 23.9663 0.0251741 24.0815 0.0740364C24.1967 0.122899 24.3009 0.194459 24.3881 0.284493V0.282425Z" fill="#D47945" fill-opacity="0.5"/>
</svg>
