<svg width="45" height="48" viewBox="0 0 45 48" fill="none" xmlns="http://www.w3.org/2000/svg">
<path fill-rule="evenodd" clip-rule="evenodd" d="M28.5942 24.8914C28.2264 23.8514 27.5452 22.9509 26.6444 22.314C25.7437 21.6771 24.6676 21.3351 23.5645 21.3351V20.0017H20.8976V21.3351C19.483 21.3351 18.1263 21.8971 17.126 22.8973C16.1257 23.8976 15.5638 25.2543 15.5638 26.6689C15.5638 28.0835 16.1257 29.4402 17.126 30.4404C18.1263 31.4407 19.483 32.0027 20.8976 32.0027V37.3364C19.7375 37.3364 18.7494 36.5964 18.3814 35.559C18.3268 35.3892 18.2387 35.2322 18.1223 35.0971C18.006 34.962 17.8637 34.8516 17.7039 34.7725C17.5442 34.6933 17.3701 34.647 17.1922 34.6363C17.0142 34.6256 16.8359 34.6507 16.6678 34.7101C16.4997 34.7695 16.3452 34.862 16.2134 34.9821C16.0817 35.1022 15.9754 35.2476 15.9008 35.4095C15.8262 35.5715 15.7849 35.7467 15.7792 35.9249C15.7736 36.1031 15.8037 36.2807 15.8678 36.447C16.2356 37.4871 16.9168 38.3876 17.8176 39.0244C18.7184 39.6613 19.7944 40.0033 20.8976 40.0033V41.3368H23.5645V40.0033C24.9791 40.0033 26.3357 39.4414 27.336 38.4411C28.3363 37.4408 28.8982 36.0842 28.8982 34.6696C28.8982 33.255 28.3363 31.8983 27.336 30.898C26.3357 29.8977 24.9791 29.3358 23.5645 29.3358V24.002C24.116 24.0019 24.654 24.1727 25.1044 24.4911C25.5548 24.8094 25.8954 25.2595 26.0793 25.7795C26.1971 26.113 26.4425 26.386 26.7616 26.5386C26.9196 26.6141 27.0909 26.6578 27.2658 26.6671C27.4407 26.6764 27.6157 26.6512 27.7808 26.5929C27.9459 26.5346 28.098 26.4443 28.2282 26.3272C28.3585 26.2102 28.4644 26.0686 28.5399 25.9106C28.6154 25.7526 28.6591 25.5813 28.6684 25.4064C28.6777 25.2315 28.6525 25.0565 28.5942 24.8914ZM20.8976 24.002C20.1903 24.002 19.5119 24.283 19.0118 24.7831C18.5117 25.2833 18.2307 25.9616 18.2307 26.6689C18.2307 27.3762 18.5117 28.0545 19.0118 28.5547C19.5119 29.0548 20.1903 29.3358 20.8976 29.3358V24.002ZM23.5645 37.3364C24.2718 37.3364 24.9501 37.0555 25.4502 36.5553C25.9504 36.0552 26.2313 35.3769 26.2313 34.6696C26.2313 33.9623 25.9504 33.2839 25.4502 32.7838C24.9501 32.2836 24.2718 32.0027 23.5645 32.0027V37.3364Z" fill="#D47945"/>
<path fill-rule="evenodd" clip-rule="evenodd" d="M7.76712 3.49496C11.0394 1.89349 16.4078 0 22.283 0C28.0355 0 33.2626 1.81482 36.5175 3.39495L36.7015 3.48429C37.6829 3.96966 38.475 4.42837 39.0324 4.8004L34.1066 12.001C45.4623 23.61 54.2337 48 22.283 48C-9.66767 48 -1.13229 24.0527 10.322 12.001L5.42826 4.8004C5.80562 4.55371 6.28433 4.26702 6.85504 3.963C7.13773 3.81098 7.44176 3.65364 7.76712 3.49496ZM30.9411 11.905L34.884 6.14051C31.2171 6.40453 26.854 7.26594 22.6537 8.48204C19.6534 9.34878 16.3198 9.21677 13.2329 8.64739C12.455 8.50317 11.6825 8.3315 10.9167 8.13268L13.4769 11.9023C18.9641 13.8558 25.4526 13.8558 30.9411 11.905ZM11.9368 14.1745C18.3573 16.6547 26.074 16.6547 32.4945 14.1718C35.1746 16.997 37.4165 20.2075 39.1457 23.6966C40.9486 27.3743 41.93 31.0506 41.77 34.2189C41.6153 37.2764 40.4125 39.8887 37.6656 41.8302C34.8027 43.853 29.9876 45.3331 22.2817 45.3331C14.5677 45.3331 9.72995 43.8783 6.84038 41.8782C4.07348 39.9607 2.85871 37.3844 2.6867 34.3682C2.50668 31.2346 3.46676 27.577 5.26291 23.874C6.97639 20.343 9.36725 16.9441 11.9368 14.1745ZM10.4033 5.22177C11.4701 5.53913 12.5849 5.81515 13.7156 6.0245C16.5825 6.55255 19.4574 6.62989 21.911 5.91916C24.7702 5.08622 27.6782 4.43113 30.6184 3.95766C28.1648 3.21894 25.2952 2.66689 22.2817 2.66689C17.6879 2.66689 13.4036 3.94833 10.4033 5.22177Z" fill="#D47945"/>
</svg>
