<?xml version="1.0" standalone="no"?>
<!DOCTYPE svg PUBLIC "-//W3C//DTD SVG 20010904//EN"
 "http://www.w3.org/TR/2001/REC-SVG-20010904/DTD/svg10.dtd">
<svg version="1.0" xmlns="http://www.w3.org/2000/svg"
 width="300.000000pt" height="300.000000pt" viewBox="0 0 300.000000 300.000000"
 preserveAspectRatio="xMidYMid meet">
<metadata>
Created by potrace 1.14, written by Peter Selinger 2001-2017
</metadata>
<g transform="translate(0.000000,300.000000) scale(0.100000,-0.100000)"
fill="#000000" stroke="none">
<path d="M156 2594 c-4 -9 -2 -13 5 -8 8 4 8 0 0 -14 -6 -12 -7 -23 -2 -26 10
-7 9 -25 -2 -43 -5 -8 -3 -13 3 -13 7 0 8 -7 3 -17 -10 -21 -9 -65 1 -82 4 -6
3 -11 -2 -11 -10 0 -9 -30 2 -48 4 -7 2 -12 -5 -12 -8 0 -8 -4 1 -15 9 -11 9
-15 1 -15 -8 0 -9 -5 -2 -18 5 -10 6 -24 2 -31 -8 -13 -6 -59 3 -68 3 -3 1
-14 -5 -24 -7 -14 -6 -19 2 -19 8 0 8 -4 -1 -15 -10 -12 -10 -15 0 -15 10 0
10 -3 0 -15 -7 -8 -8 -15 -3 -15 11 0 11 -29 -1 -48 -4 -7 -2 -12 4 -12 6 0 8
-5 4 -11 -10 -17 -11 -61 -1 -81 4 -10 4 -18 -1 -18 -10 0 -9 -30 2 -48 4 -7
2 -12 -5 -12 -8 0 -8 -4 1 -15 10 -12 10 -15 0 -15 -10 0 -10 -3 0 -15 10 -12
10 -15 0 -15 -10 0 -10 -3 0 -15 10 -12 10 -15 0 -15 -10 0 -10 -3 0 -15 10
-12 10 -15 0 -15 -10 0 -10 -3 0 -15 10 -12 10 -15 0 -15 -10 0 -10 -3 0 -15
10 -12 10 -15 0 -15 -10 0 -10 -3 0 -15 10 -12 10 -15 0 -15 -10 0 -10 -3 0
-15 10 -12 10 -15 0 -15 -9 0 -9 -4 1 -17 14 -17 14 -20 -3 -40 -7 -9 -7 -13
1 -13 8 0 9 -6 4 -17 -10 -21 -9 -65 1 -82 4 -6 3 -11 -2 -11 -10 0 -9 -30 2
-48 4 -7 2 -12 -5 -12 -8 0 -8 -4 1 -15 9 -11 9 -15 1 -15 -8 0 -9 -5 -2 -19
6 -10 8 -21 5 -24 -9 -9 -11 -55 -3 -68 4 -7 3 -21 -2 -31 -7 -13 -6 -18 2
-18 8 0 8 -4 -1 -15 -10 -12 -10 -15 0 -15 10 0 10 -3 0 -15 -7 -8 -8 -15 -3
-15 11 0 11 -29 -1 -48 -4 -7 -2 -12 4 -12 7 0 8 -7 3 -17 -10 -21 -9 -65 1
-82 4 -6 3 -11 -2 -11 -10 0 -9 -30 2 -48 4 -7 2 -12 -5 -12 -8 0 -8 -4 1 -15
10 -12 10 -15 0 -15 -10 0 -10 -3 0 -15 10 -12 10 -15 0 -15 -10 0 -10 -3 0
-15 10 -12 10 -15 0 -15 -10 0 -10 -3 0 -15 10 -12 10 -15 0 -15 -10 0 -10 -3
0 -15 10 -12 10 -15 0 -15 -10 0 -10 -3 0 -15 10 -12 10 -15 0 -15 -10 0 -10
-3 0 -15 10 -12 10 -15 0 -15 -10 0 -10 -3 0 -15 10 -12 10 -15 0 -15 -9 0 -9
-4 1 -17 14 -17 14 -20 -3 -40 -7 -9 -7 -13 1 -13 8 0 9 -6 4 -17 -10 -21 -9
-65 1 -82 4 -6 3 -11 -2 -11 -10 0 -9 -30 2 -48 4 -6 4 -12 -1 -13 -4 0 1 -4
12 -8 11 -5 42 -7 68 -5 34 3 46 0 41 -8 -5 -7 -3 -8 7 -2 21 13 240 13 232 0
-4 -6 1 -5 11 3 15 13 19 13 27 0 7 -11 9 -11 9 0 0 7 6 11 14 8 8 -3 16 0 18
6 2 7 4 318 3 693 0 474 3 677 10 670 27 -28 54 -74 47 -81 -4 -5 -2 -5 5 -1
7 3 14 -2 18 -14 6 -18 81 -137 156 -246 16 -23 25 -44 22 -48 -3 -3 -1 -6 5
-6 6 0 19 -16 28 -35 9 -19 20 -35 25 -35 5 0 9 -7 9 -15 0 -7 8 -19 18 -24 9
-6 14 -11 9 -11 -8 0 44 -83 56 -88 4 -2 5 -8 1 -13 -3 -5 0 -9 5 -9 6 0 11
-7 11 -15 0 -8 5 -15 10 -15 6 0 10 -7 10 -15 0 -8 5 -15 10 -15 6 0 10 -5 10
-10 0 -6 32 -58 70 -116 39 -59 70 -111 70 -115 0 -5 5 -9 10 -9 6 0 10 -5 10
-11 0 -5 18 -37 40 -70 23 -32 38 -59 35 -59 -3 0 4 -9 15 -20 11 -11 20 -26
20 -33 0 -7 9 -19 20 -27 11 -8 20 -22 20 -31 0 -10 4 -19 8 -21 4 -2 30 -38
56 -81 26 -42 49 -77 51 -77 2 0 14 17 26 38 13 20 27 42 32 47 8 10 70 107
197 307 36 56 64 106 62 110 -1 4 3 8 8 8 6 0 18 16 27 35 9 19 20 35 25 35 4
0 8 5 8 11 0 6 7 17 15 26 8 8 13 19 10 24 -4 5 -2 9 4 9 6 0 18 15 27 33 9
17 20 34 23 37 3 3 15 21 25 40 11 19 24 40 28 45 5 6 29 42 53 80 25 39 49
76 55 83 6 6 7 12 3 12 -4 0 -3 4 2 8 6 4 26 32 45 62 19 30 38 57 42 58 5 2
6 7 3 12 -3 4 2 13 10 20 8 7 15 18 15 25 0 8 4 15 9 17 4 2 32 41 61 88 29
46 58 89 64 96 9 9 12 -150 12 -677 -1 -743 -4 -695 48 -689 12 1 16 -2 11
-11 -6 -9 -4 -10 6 -3 22 14 160 14 152 0 -5 -8 -3 -8 8 0 8 7 54 11 112 10
54 -1 101 2 103 6 4 6 7 1444 4 2121 l0 97 -222 -2 -222 -3 -57 -85 c-32 -47
-58 -91 -58 -97 -1 -7 -5 -13 -9 -13 -5 0 -16 -16 -25 -35 -9 -19 -22 -35 -27
-35 -6 0 -9 -4 -6 -9 3 -5 -1 -14 -9 -21 -8 -7 -15 -19 -15 -26 0 -8 -3 -14
-8 -14 -4 0 -18 -20 -32 -45 -14 -25 -28 -45 -33 -45 -4 0 -6 -4 -3 -9 3 -5
-1 -14 -9 -21 -8 -7 -15 -18 -15 -25 0 -7 -7 -16 -16 -19 -8 -3 -12 -10 -9
-16 3 -5 2 -10 -3 -10 -5 0 -15 -13 -22 -30 -7 -16 -16 -27 -21 -24 -5 3 -8 2
-7 -3 3 -9 -77 -145 -99 -168 -7 -8 -13 -16 -13 -19 0 -3 -21 -38 -47 -78 -27
-40 -52 -80 -58 -90 -44 -72 -91 -145 -102 -156 -7 -7 -13 -18 -13 -23 0 -6
-6 -17 -12 -24 -31 -35 -38 -45 -31 -45 4 0 0 -7 -10 -14 -10 -8 -18 -16 -17
-18 4 -7 -24 -58 -32 -58 -4 0 -8 -7 -8 -15 0 -9 -7 -18 -15 -21 -8 -4 -15
-13 -15 -21 0 -16 -24 -43 -38 -43 -6 0 -16 13 -24 30 -7 17 -16 30 -19 30 -4
0 -12 14 -19 30 -7 17 -17 30 -23 30 -6 0 -8 3 -4 6 3 4 1 12 -6 20 -30 33
-35 42 -30 48 4 3 1 6 -6 6 -7 0 -9 5 -6 10 3 6 1 10 -5 10 -6 0 -15 11 -20
25 -5 14 -14 31 -20 38 -17 19 -76 112 -83 130 -3 9 -11 17 -17 17 -6 0 -8 5
-5 10 3 6 1 10 -4 10 -6 0 -11 7 -11 15 0 8 -4 15 -9 15 -9 0 -24 38 -22 53 1
5 -2 6 -7 4 -4 -3 -27 28 -51 69 -24 40 -50 79 -57 85 -8 6 -14 18 -14 25 0 8
-4 14 -10 14 -5 0 -10 5 -10 10 0 10 -48 90 -61 100 -3 3 -12 19 -19 37 -8 17
-17 30 -21 27 -4 -2 -9 6 -13 19 -3 12 -15 32 -26 45 -11 12 -18 22 -15 22 2
0 -3 9 -13 20 -9 12 -17 25 -17 29 0 5 -12 23 -28 40 -15 17 -25 31 -22 31 4
0 -36 65 -55 88 -6 6 -7 12 -3 12 4 0 3 4 -2 8 -12 8 -85 117 -85 127 0 3 -6
13 -14 21 -12 11 -57 14 -234 14 -189 0 -221 -2 -226 -16z"/>
</g>
</svg>
